<mxfile host="app.diagrams.net" agent="Mozilla/5.0 (Macintosh; Intel Mac OS X 10_15_7) AppleWebKit/537.36 (KHTML, like Gecko) Chrome/128.0.0.0 Safari/537.36 OPR/114.0.0.0" version="24.8.9">
  <diagram name="Page-1" id="2YBvvXClWsGukQMizWep">
    <mxGraphModel dx="851" dy="436" grid="1" gridSize="10" guides="1" tooltips="1" connect="1" arrows="1" fold="1" page="1" pageScale="1" pageWidth="850" pageHeight="1100" math="0" shadow="0">
      <root>
        <mxCell id="0" />
        <mxCell id="1" parent="0" />
        <mxCell id="ueSmNJdZmO534fqpI7w7-6" value="&lt;div&gt;Scheduler&lt;/div&gt;" style="shape=umlActor;verticalLabelPosition=bottom;verticalAlign=top;html=1;labelBackgroundColor=default;" vertex="1" parent="1">
          <mxGeometry x="50" y="120" width="30" height="60" as="geometry" />
        </mxCell>
        <mxCell id="ueSmNJdZmO534fqpI7w7-7" style="edgeStyle=orthogonalEdgeStyle;rounded=0;orthogonalLoop=1;jettySize=auto;html=1;labelBackgroundColor=default;" edge="1" parent="1">
          <mxGeometry relative="1" as="geometry">
            <mxPoint x="65" y="920" as="targetPoint" />
            <mxPoint x="64.5" y="190" as="sourcePoint" />
          </mxGeometry>
        </mxCell>
        <mxCell id="ueSmNJdZmO534fqpI7w7-8" value="" style="html=1;verticalAlign=bottom;endArrow=block;labelBackgroundColor=default;fontFamily=Verdana;fontSize=12;edgeStyle=elbowEdgeStyle;elbow=vertical;" edge="1" parent="1" target="ueSmNJdZmO534fqpI7w7-10">
          <mxGeometry x="-0.4228" relative="1" as="geometry">
            <mxPoint x="70" y="250" as="sourcePoint" />
            <mxPoint x="210" y="250" as="targetPoint" />
            <mxPoint as="offset" />
          </mxGeometry>
        </mxCell>
        <mxCell id="ueSmNJdZmO534fqpI7w7-9" value="&lt;font face=&quot;Verdana&quot;&gt;&lt;span style=&quot;font-size: 12px;&quot;&gt;&lt;b&gt;run()&lt;/b&gt;&lt;/span&gt;&lt;/font&gt;" style="edgeLabel;html=1;align=center;verticalAlign=middle;resizable=0;points=[];labelBackgroundColor=default;" vertex="1" connectable="0" parent="ueSmNJdZmO534fqpI7w7-8">
          <mxGeometry x="-0.4655" y="1" relative="1" as="geometry">
            <mxPoint x="34" y="-9" as="offset" />
          </mxGeometry>
        </mxCell>
        <mxCell id="ueSmNJdZmO534fqpI7w7-10" value="&lt;span style=&quot;font-family: Helvetica; background-color: rgb(251, 251, 251);&quot;&gt;Job&lt;/span&gt;" style="shape=umlLifeline;perimeter=lifelinePerimeter;whiteSpace=wrap;html=1;container=1;collapsible=0;recursiveResize=0;outlineConnect=0;rounded=1;shadow=0;comic=0;labelBackgroundColor=default;strokeWidth=1;fontFamily=Verdana;fontSize=12;align=center;movable=1;resizable=1;rotatable=1;deletable=1;editable=1;locked=0;connectable=1;" vertex="1" parent="1">
          <mxGeometry x="180" y="120" width="100" height="810" as="geometry" />
        </mxCell>
        <mxCell id="ueSmNJdZmO534fqpI7w7-12" value="" style="html=1;points=[];perimeter=orthogonalPerimeter;rounded=0;shadow=0;comic=0;labelBackgroundColor=default;strokeWidth=1;fontFamily=Verdana;fontSize=12;align=center;" vertex="1" parent="ueSmNJdZmO534fqpI7w7-10">
          <mxGeometry x="45" y="100" width="10" height="660" as="geometry" />
        </mxCell>
        <mxCell id="ueSmNJdZmO534fqpI7w7-54" value="" style="html=1;verticalAlign=bottom;endArrow=block;labelBackgroundColor=default;fontFamily=Verdana;fontSize=12;edgeStyle=elbowEdgeStyle;elbow=vertical;" edge="1" parent="ueSmNJdZmO534fqpI7w7-10" target="ueSmNJdZmO534fqpI7w7-26">
          <mxGeometry x="-0.4228" relative="1" as="geometry">
            <mxPoint x="55" y="570" as="sourcePoint" />
            <mxPoint x="320" y="570.5" as="targetPoint" />
            <mxPoint as="offset" />
          </mxGeometry>
        </mxCell>
        <mxCell id="ueSmNJdZmO534fqpI7w7-55" value="&lt;font face=&quot;Verdana&quot;&gt;&lt;span style=&quot;font-size: 12px;&quot;&gt;&lt;b&gt;purge()&lt;/b&gt;&lt;/span&gt;&lt;/font&gt;" style="edgeLabel;html=1;align=center;verticalAlign=middle;resizable=0;points=[];labelBackgroundColor=default;" vertex="1" connectable="0" parent="ueSmNJdZmO534fqpI7w7-54">
          <mxGeometry x="-0.4655" y="1" relative="1" as="geometry">
            <mxPoint x="-33" y="-9" as="offset" />
          </mxGeometry>
        </mxCell>
        <mxCell id="ueSmNJdZmO534fqpI7w7-65" value="&lt;font face=&quot;Helvetica&quot;&gt;&lt;span style=&quot;font-size: 11px; text-wrap: wrap;&quot;&gt;JobStatus&lt;/span&gt;&lt;/font&gt;" style="html=1;verticalAlign=bottom;endArrow=none;labelBackgroundColor=default;fontFamily=Verdana;fontSize=12;edgeStyle=elbowEdgeStyle;elbow=horizontal;dashed=1;startArrow=classic;startFill=1;endFill=0;" edge="1" parent="ueSmNJdZmO534fqpI7w7-10">
          <mxGeometry x="-0.332" relative="1" as="geometry">
            <mxPoint x="-110" y="740" as="sourcePoint" />
            <mxPoint x="39.5" y="740" as="targetPoint" />
            <mxPoint x="1" as="offset" />
            <Array as="points">
              <mxPoint x="-50" y="740" />
            </Array>
          </mxGeometry>
        </mxCell>
        <mxCell id="ueSmNJdZmO534fqpI7w7-24" value="&lt;font face=&quot;Helvetica&quot;&gt;&lt;span style=&quot;background-color: rgb(251, 251, 251);&quot;&gt;ItemProcessor&lt;/span&gt;&lt;/font&gt;" style="shape=umlLifeline;perimeter=lifelinePerimeter;whiteSpace=wrap;html=1;container=1;collapsible=0;recursiveResize=0;outlineConnect=0;rounded=1;shadow=0;comic=0;labelBackgroundColor=default;strokeWidth=1;fontFamily=Verdana;fontSize=12;align=center;movable=1;resizable=1;rotatable=1;deletable=1;editable=1;locked=0;connectable=1;" vertex="1" parent="1">
          <mxGeometry x="460" y="120" width="100" height="820" as="geometry" />
        </mxCell>
        <mxCell id="ueSmNJdZmO534fqpI7w7-25" value="" style="html=1;points=[];perimeter=orthogonalPerimeter;rounded=0;shadow=0;comic=0;labelBackgroundColor=default;strokeWidth=1;fontFamily=Verdana;fontSize=12;align=center;" vertex="1" parent="ueSmNJdZmO534fqpI7w7-24">
          <mxGeometry x="45" y="360" width="10" height="150" as="geometry" />
        </mxCell>
        <mxCell id="ueSmNJdZmO534fqpI7w7-26" value="&lt;font face=&quot;Helvetica&quot;&gt;&lt;span style=&quot;background-color: rgb(251, 251, 251);&quot;&gt;Itemwriter&lt;/span&gt;&lt;/font&gt;" style="shape=umlLifeline;perimeter=lifelinePerimeter;whiteSpace=wrap;html=1;container=1;collapsible=0;recursiveResize=0;outlineConnect=0;rounded=1;shadow=0;comic=0;labelBackgroundColor=default;strokeWidth=1;fontFamily=Verdana;fontSize=12;align=center;movable=1;resizable=1;rotatable=1;deletable=1;editable=1;locked=0;connectable=1;" vertex="1" parent="1">
          <mxGeometry x="590" y="120" width="100" height="820" as="geometry" />
        </mxCell>
        <mxCell id="ueSmNJdZmO534fqpI7w7-27" value="" style="html=1;points=[];perimeter=orthogonalPerimeter;rounded=0;shadow=0;comic=0;labelBackgroundColor=default;strokeWidth=1;fontFamily=Verdana;fontSize=12;align=center;" vertex="1" parent="ueSmNJdZmO534fqpI7w7-26">
          <mxGeometry x="45" y="540" width="10" height="170" as="geometry" />
        </mxCell>
        <mxCell id="ueSmNJdZmO534fqpI7w7-33" value="&lt;font face=&quot;Helvetica&quot;&gt;&lt;span style=&quot;font-size: 11px; text-wrap: wrap;&quot;&gt;ResultObject&lt;/span&gt;&lt;/font&gt;" style="html=1;verticalAlign=bottom;endArrow=none;labelBackgroundColor=default;fontFamily=Verdana;fontSize=12;edgeStyle=elbowEdgeStyle;elbow=vertical;dashed=1;startArrow=classic;startFill=1;endFill=0;" edge="1" parent="1" source="ueSmNJdZmO534fqpI7w7-39">
          <mxGeometry x="-0.6479" relative="1" as="geometry">
            <mxPoint x="629.9957142857143" y="350" as="sourcePoint" />
            <mxPoint x="770" y="350" as="targetPoint" />
            <mxPoint as="offset" />
          </mxGeometry>
        </mxCell>
        <mxCell id="ueSmNJdZmO534fqpI7w7-28" value="" style="html=1;verticalAlign=bottom;endArrow=block;labelBackgroundColor=default;fontFamily=Verdana;fontSize=12;edgeStyle=elbowEdgeStyle;elbow=vertical;" edge="1" parent="1" target="ueSmNJdZmO534fqpI7w7-47">
          <mxGeometry x="-0.4228" relative="1" as="geometry">
            <mxPoint x="380" y="310" as="sourcePoint" />
            <mxPoint x="509.5" y="310" as="targetPoint" />
            <mxPoint as="offset" />
          </mxGeometry>
        </mxCell>
        <mxCell id="ueSmNJdZmO534fqpI7w7-29" value="&lt;font face=&quot;Verdana&quot;&gt;&lt;span style=&quot;font-size: 12px;&quot;&gt;&lt;b&gt;executeQuery()&lt;/b&gt;&lt;/span&gt;&lt;/font&gt;" style="edgeLabel;html=1;align=center;verticalAlign=middle;resizable=0;points=[];labelBackgroundColor=default;" vertex="1" connectable="0" parent="ueSmNJdZmO534fqpI7w7-28">
          <mxGeometry x="-0.4655" y="1" relative="1" as="geometry">
            <mxPoint x="-47" y="-9" as="offset" />
          </mxGeometry>
        </mxCell>
        <mxCell id="ueSmNJdZmO534fqpI7w7-39" value="&lt;font face=&quot;Helvetica&quot;&gt;&lt;span style=&quot;background-color: rgb(251, 251, 251);&quot;&gt;ItemReader&lt;/span&gt;&lt;/font&gt;" style="shape=umlLifeline;perimeter=lifelinePerimeter;whiteSpace=wrap;html=1;container=1;collapsible=0;recursiveResize=0;outlineConnect=0;rounded=1;shadow=0;comic=0;labelBackgroundColor=default;strokeWidth=1;fontFamily=Verdana;fontSize=12;align=center;movable=1;resizable=1;rotatable=1;deletable=1;editable=1;locked=0;connectable=1;" vertex="1" parent="1">
          <mxGeometry x="320" y="120" width="100" height="820" as="geometry" />
        </mxCell>
        <mxCell id="ueSmNJdZmO534fqpI7w7-40" value="" style="html=1;points=[];perimeter=orthogonalPerimeter;rounded=0;shadow=0;comic=0;labelBackgroundColor=default;strokeWidth=1;fontFamily=Verdana;fontSize=12;align=center;" vertex="1" parent="ueSmNJdZmO534fqpI7w7-39">
          <mxGeometry x="45" y="140" width="10" height="140" as="geometry" />
        </mxCell>
        <mxCell id="ueSmNJdZmO534fqpI7w7-52" value="&lt;font face=&quot;Helvetica&quot;&gt;&lt;span style=&quot;font-size: 11px; text-wrap: wrap;&quot;&gt;RetentionPolicy&lt;/span&gt;&lt;/font&gt;" style="html=1;verticalAlign=bottom;endArrow=none;labelBackgroundColor=default;fontFamily=Verdana;fontSize=12;edgeStyle=elbowEdgeStyle;elbow=vertical;dashed=1;startArrow=classic;startFill=1;endFill=0;" edge="1" parent="ueSmNJdZmO534fqpI7w7-39">
          <mxGeometry x="-0.133" y="-2" relative="1" as="geometry">
            <mxPoint x="-78" y="260.01" as="sourcePoint" />
            <mxPoint x="40" y="260" as="targetPoint" />
            <mxPoint as="offset" />
          </mxGeometry>
        </mxCell>
        <mxCell id="ueSmNJdZmO534fqpI7w7-36" value="" style="html=1;verticalAlign=bottom;endArrow=block;labelBackgroundColor=default;fontFamily=Verdana;fontSize=12;edgeStyle=elbowEdgeStyle;elbow=vertical;" edge="1" parent="ueSmNJdZmO534fqpI7w7-39" target="ueSmNJdZmO534fqpI7w7-24">
          <mxGeometry x="-0.4228" relative="1" as="geometry">
            <mxPoint x="-80" y="390" as="sourcePoint" />
            <mxPoint x="65" y="360" as="targetPoint" />
            <mxPoint as="offset" />
            <Array as="points">
              <mxPoint x="120" y="390" />
            </Array>
          </mxGeometry>
        </mxCell>
        <mxCell id="ueSmNJdZmO534fqpI7w7-37" value="&lt;b style=&quot;font-family: Verdana; font-size: 12px;&quot;&gt;findOldRecords(retentionPolicy)&lt;/b&gt;" style="edgeLabel;html=1;align=center;verticalAlign=middle;resizable=0;points=[];labelBackgroundColor=default;" vertex="1" connectable="0" parent="ueSmNJdZmO534fqpI7w7-36">
          <mxGeometry x="-0.4655" y="1" relative="1" as="geometry">
            <mxPoint x="43" y="-9" as="offset" />
          </mxGeometry>
        </mxCell>
        <mxCell id="ueSmNJdZmO534fqpI7w7-47" value="&lt;font face=&quot;Helvetica&quot;&gt;&lt;span style=&quot;background-color: rgb(251, 251, 251);&quot;&gt;Data Repository&lt;/span&gt;&lt;/font&gt;" style="shape=umlLifeline;perimeter=lifelinePerimeter;whiteSpace=wrap;html=1;container=1;collapsible=0;recursiveResize=0;outlineConnect=0;rounded=1;shadow=0;comic=0;labelBackgroundColor=default;strokeWidth=1;fontFamily=Verdana;fontSize=12;align=center;movable=1;resizable=1;rotatable=1;deletable=1;editable=1;locked=0;connectable=1;" vertex="1" parent="1">
          <mxGeometry x="730" y="120" width="100" height="820" as="geometry" />
        </mxCell>
        <mxCell id="ueSmNJdZmO534fqpI7w7-48" value="" style="html=1;points=[];perimeter=orthogonalPerimeter;rounded=0;shadow=0;comic=0;labelBackgroundColor=default;strokeWidth=1;fontFamily=Verdana;fontSize=12;align=center;" vertex="1" parent="ueSmNJdZmO534fqpI7w7-47">
          <mxGeometry x="45" y="160" width="10" height="100" as="geometry" />
        </mxCell>
        <mxCell id="ueSmNJdZmO534fqpI7w7-58" value="" style="html=1;points=[];perimeter=orthogonalPerimeter;rounded=0;shadow=0;comic=0;labelBackgroundColor=default;strokeWidth=1;fontFamily=Verdana;fontSize=12;align=center;" vertex="1" parent="ueSmNJdZmO534fqpI7w7-47">
          <mxGeometry x="45" y="570" width="10" height="110" as="geometry" />
        </mxCell>
        <mxCell id="ueSmNJdZmO534fqpI7w7-61" value="" style="html=1;points=[];perimeter=orthogonalPerimeter;rounded=0;shadow=0;comic=0;labelBackgroundColor=default;strokeWidth=1;fontFamily=Verdana;fontSize=12;align=center;" vertex="1" parent="ueSmNJdZmO534fqpI7w7-47">
          <mxGeometry x="45" y="390" width="10" height="100" as="geometry" />
        </mxCell>
        <mxCell id="ueSmNJdZmO534fqpI7w7-41" value="" style="html=1;verticalAlign=bottom;endArrow=block;labelBackgroundColor=default;fontFamily=Verdana;fontSize=12;edgeStyle=elbowEdgeStyle;elbow=vertical;" edge="1" parent="1">
          <mxGeometry x="-0.4228" relative="1" as="geometry">
            <mxPoint x="235" y="290" as="sourcePoint" />
            <mxPoint x="369.5" y="290" as="targetPoint" />
            <mxPoint as="offset" />
          </mxGeometry>
        </mxCell>
        <mxCell id="ueSmNJdZmO534fqpI7w7-42" value="&lt;b style=&quot;font-family: Verdana; font-size: 12px;&quot;&gt;retrivePolicy&lt;/b&gt;" style="edgeLabel;html=1;align=center;verticalAlign=middle;resizable=0;points=[];labelBackgroundColor=default;" vertex="1" connectable="0" parent="ueSmNJdZmO534fqpI7w7-41">
          <mxGeometry x="-0.4655" y="1" relative="1" as="geometry">
            <mxPoint x="29" y="-9" as="offset" />
          </mxGeometry>
        </mxCell>
        <mxCell id="ueSmNJdZmO534fqpI7w7-56" value="&lt;font face=&quot;Helvetica&quot;&gt;&lt;span style=&quot;font-size: 11px; text-wrap: wrap;&quot;&gt;StepStatus&lt;/span&gt;&lt;/font&gt;" style="html=1;verticalAlign=bottom;endArrow=none;labelBackgroundColor=default;fontFamily=Verdana;fontSize=12;edgeStyle=elbowEdgeStyle;elbow=vertical;dashed=1;startArrow=classic;startFill=1;endFill=0;" edge="1" parent="1">
          <mxGeometry x="-0.6257" relative="1" as="geometry">
            <mxPoint x="230" y="800" as="sourcePoint" />
            <mxPoint x="635.37" y="800" as="targetPoint" />
            <mxPoint as="offset" />
            <Array as="points">
              <mxPoint x="420" y="800" />
              <mxPoint x="418.25" y="800" />
              <mxPoint x="478.25" y="810" />
            </Array>
          </mxGeometry>
        </mxCell>
        <mxCell id="ueSmNJdZmO534fqpI7w7-62" value="&lt;font face=&quot;Helvetica&quot;&gt;&lt;span style=&quot;font-size: 11px; text-wrap: wrap;&quot;&gt;ResultList&lt;/span&gt;&lt;/font&gt;" style="html=1;verticalAlign=bottom;endArrow=none;labelBackgroundColor=default;fontFamily=Verdana;fontSize=12;edgeStyle=elbowEdgeStyle;elbow=vertical;dashed=1;startArrow=classic;startFill=1;endFill=0;" edge="1" parent="1">
          <mxGeometry x="-0.52" relative="1" as="geometry">
            <mxPoint x="520" y="580" as="sourcePoint" />
            <mxPoint x="770" y="580" as="targetPoint" />
            <mxPoint as="offset" />
          </mxGeometry>
        </mxCell>
        <mxCell id="ueSmNJdZmO534fqpI7w7-63" value="" style="html=1;verticalAlign=bottom;endArrow=block;labelBackgroundColor=default;fontFamily=Verdana;fontSize=12;edgeStyle=elbowEdgeStyle;elbow=vertical;" edge="1" parent="1">
          <mxGeometry x="-0.4228" relative="1" as="geometry">
            <mxPoint x="520" y="540" as="sourcePoint" />
            <mxPoint x="780" y="540" as="targetPoint" />
            <mxPoint as="offset" />
          </mxGeometry>
        </mxCell>
        <mxCell id="ueSmNJdZmO534fqpI7w7-64" value="&lt;b style=&quot;font-family: Verdana; font-size: 12px;&quot;&gt;executeQuery()&lt;/b&gt;" style="edgeLabel;html=1;align=center;verticalAlign=middle;resizable=0;points=[];labelBackgroundColor=default;" vertex="1" connectable="0" parent="ueSmNJdZmO534fqpI7w7-63">
          <mxGeometry x="-0.4655" y="1" relative="1" as="geometry">
            <mxPoint x="-9" y="-9" as="offset" />
          </mxGeometry>
        </mxCell>
        <mxCell id="ueSmNJdZmO534fqpI7w7-35" value="&lt;span style=&quot;font-family: Helvetica; font-size: 11px; text-wrap: wrap;&quot;&gt;StepStatus&lt;/span&gt;" style="html=1;verticalAlign=bottom;endArrow=none;labelBackgroundColor=default;fontFamily=Verdana;fontSize=12;edgeStyle=elbowEdgeStyle;elbow=vertical;dashed=1;startArrow=classic;startFill=1;endFill=0;entryX=-0.15;entryY=0.75;entryDx=0;entryDy=0;entryPerimeter=0;" edge="1" parent="1">
          <mxGeometry x="-0.4834" relative="1" as="geometry">
            <mxPoint x="239.13" y="600" as="sourcePoint" />
            <mxPoint x="500.88" y="602.5" as="targetPoint" />
            <mxPoint as="offset" />
            <Array as="points">
              <mxPoint x="419.13" y="600" />
              <mxPoint x="417.38" y="600" />
              <mxPoint x="477.38" y="610" />
            </Array>
          </mxGeometry>
        </mxCell>
        <mxCell id="ueSmNJdZmO534fqpI7w7-30" value="" style="html=1;verticalAlign=bottom;endArrow=block;labelBackgroundColor=default;fontFamily=Verdana;fontSize=12;edgeStyle=elbowEdgeStyle;elbow=vertical;" edge="1" parent="1">
          <mxGeometry x="-0.4228" relative="1" as="geometry">
            <mxPoint x="647.75" y="720" as="sourcePoint" />
            <mxPoint x="770" y="720" as="targetPoint" />
            <mxPoint as="offset" />
          </mxGeometry>
        </mxCell>
        <mxCell id="ueSmNJdZmO534fqpI7w7-31" value="&lt;font face=&quot;Verdana&quot;&gt;&lt;span style=&quot;font-size: 12px;&quot;&gt;&lt;b&gt;deletionQuery()&lt;/b&gt;&lt;/span&gt;&lt;/font&gt;" style="edgeLabel;html=1;align=center;verticalAlign=middle;resizable=0;points=[];labelBackgroundColor=default;" vertex="1" connectable="0" parent="ueSmNJdZmO534fqpI7w7-30">
          <mxGeometry x="-0.4655" y="1" relative="1" as="geometry">
            <mxPoint x="25" y="-9" as="offset" />
          </mxGeometry>
        </mxCell>
        <mxCell id="ueSmNJdZmO534fqpI7w7-49" value="&lt;font face=&quot;Helvetica&quot;&gt;&lt;span style=&quot;font-size: 11px; text-wrap: wrap;&quot;&gt;ResultCode&lt;/span&gt;&lt;/font&gt;" style="html=1;verticalAlign=bottom;endArrow=none;labelBackgroundColor=default;fontFamily=Verdana;fontSize=12;edgeStyle=elbowEdgeStyle;elbow=vertical;dashed=1;startArrow=classic;startFill=1;endFill=0;" edge="1" parent="1">
          <mxGeometry x="-0.332" relative="1" as="geometry">
            <mxPoint x="645.5" y="770" as="sourcePoint" />
            <mxPoint x="775" y="770" as="targetPoint" />
            <mxPoint x="1" as="offset" />
            <Array as="points">
              <mxPoint x="685.5" y="770" />
            </Array>
          </mxGeometry>
        </mxCell>
        <mxCell id="ueSmNJdZmO534fqpI7w7-66" value="Assignment 3 | CS 6310 FALL 2024&lt;div&gt;Sequence Diagram &lt;b&gt;Archivability&lt;/b&gt;&lt;/div&gt;&lt;div&gt;Group 55&lt;/div&gt;" style="rounded=1;whiteSpace=wrap;html=1;fillColor=#f5f5f5;fontColor=#333333;strokeColor=#666666;labelBackgroundColor=default;" vertex="1" parent="1">
          <mxGeometry x="320" y="10" width="240" height="70" as="geometry" />
        </mxCell>
      </root>
    </mxGraphModel>
  </diagram>
</mxfile>
